<svg xmlns="http://www.w3.org/2000/svg" viewBox="0 0 27 32"><path fill="#000000" d="M20.395 32a6.35 6.35 0 0 1-3.516-1.067A6.355 6.355 0 0 1 13.362 32c-1.249 0-2.48-.375-3.516-1.067A6.265 6.265 0 0 1 6.372 32h-.038a6.255 6.255 0 0 1-4.5-1.906 6.377 6.377 0 0 1-1.836-4.482v-12.25C0 5.995 5.994 0 13.362 0c7.369 0 13.363 5.994 13.363 13.363v12.253c0 3.393-2.626 6.192-5.978 6.375-.117.007-.234.009-.352.009Zm-9.115-19.563-3.93-2.27a1.072 1.072 0 0 0-1.463.392 1.072 1.072 0 0 0 .391 1.463l2.326 1.343-2.326 1.343a1.072 1.072 0 0 0 1.071 1.855l3.932-2.27a1.071 1.071 0 0 0 0-1.854v-.002Zm8.902-.146h-5.164a1.071 1.071 0 1 0 0 2.143h5.164a1.071 1.071 0 1 0 0-2.143Z"/></svg>
